<svg version="1.1" xmlns="http://www.w3.org/2000/svg" fill-rule="evenodd" clip-rule="evenodd" height="1024" width="1024" viewBox="0 0 1024 1024"><path d="M576.085 684.565c5.12 0 18.432 0 18.432 17.408 0 7.168-2.73 17.75-18.432 17.75H461.696v70.357c0 10.24 4.779 16.043 16.384 16.043H595.2c18.453 0 18.453 15.722 18.453 18.112 0 3.754 0 18.432-18.453 18.432H466.133c-33.13 0-46.442-11.606-46.442-46.102V614.891c0-33.792 12.97-46.08 46.442-46.08h123.264c18.432 0 18.432 15.018 18.432 18.09 0 5.803-1.706 18.454-18.432 18.454H478.08c-11.264 0-16.384 5.802-16.384 16.042v63.147h114.39z m261.803 146.496c0 16.384-12.288 18.774-19.477 18.774-11.947 0-20.48-4.779-20.48-18.774V713.26c0-16.747-5.462-45.099-42.027-45.099-41.621 0-50.496 36.907-50.496 50.219V831.06c0 15.702-10.944 18.774-19.477 18.774-12.63 0-20.48-5.462-20.48-18.774v-178.24c0-18.453 14.336-19.136 19.797-19.136 11.605 0 20.16 4.779 20.16 19.136v12.608c10.24-12.288 28.33-31.744 62.485-31.744 43.008 0 69.974 25.28 69.974 73.408v123.968zM342.635 336.213h84.885c13.824 0 19.584-7.296 19.584-19.584v-74.922c0-13.824-7.296-19.584-19.584-19.584h-84.885v114.09z m-42.262-114.069h-84.117c-13.056 0-19.584 6.144-19.584 19.584v74.88c0 12.715 5.76 19.627 19.584 19.627h84.117V222.144z m42.262 240.47c0 4.97 0 19.583-20.736 19.583-19.606 0-21.526-11.52-21.526-19.584v-88h-94.485c-34.581 0-50.71-11.52-50.71-50.688v-89.898c0-39.574 16.513-50.304 50.71-50.304h94.485v-43.008c0-5.782 0.768-19.2 19.99-19.2 15.744 0 22.272 5.376 22.272 19.2v43.029h95.253c34.965 0 50.71 11.52 50.71 50.304v89.899c0 38.016-14.977 50.688-50.71 50.688h-95.253v87.978z"></path><path d="M882.027 641.77a21.333 21.333 0 0 1-20.694-26.58c7.638-30.06 11.499-61.185 11.499-92.523 0-205.846-167.061-373.334-372.416-373.334a21.333 21.333 0 0 1 0-42.666c228.885 0 415.083 186.624 415.083 416 0 34.88-4.31 69.546-12.822 103.018a21.333 21.333 0 0 1-20.65 16.086M500.416 938.667c-228.864 0-415.083-186.624-415.083-416 0-33.174 3.926-66.198 11.627-98.134a21.333 21.333 0 0 1 41.493 10.006A375.637 375.637 0 0 0 128 522.667C128 728.512 295.04 896 500.416 896a21.333 21.333 0 1 1 0 42.667"></path></svg>